<svg width="341" height="304" viewBox="0 0 341 304" fill="none" xmlns="http://www.w3.org/2000/svg">
<path fill-rule="evenodd" clip-rule="evenodd" d="M265.942 95.7634C296.575 94.1935 318.612 106.138 331.779 116.581C336.077 119.994 337.033 126.274 333.962 131.052L333.621 131.53C328.368 139.515 316.019 158.081 299.099 163.678C292.277 165.931 285.386 172.142 280.337 177.875C293.096 180.196 313.358 186.476 335.668 203.608C340.717 207.43 342.354 213.915 339.83 219.785C337.237 225.655 331.37 228.794 325.161 227.702C238.038 212.003 179.569 218.897 63.5177 301.146C61.2662 302.784 58.7419 303.671 56.1494 303.944C52.2605 304.286 48.2352 303.057 44.9604 300.327C39.5706 295.754 37.9332 288.382 40.9351 281.966C54.5802 252.616 69.9991 239.715 76.0029 235.552C79.2095 233.368 83.5759 234.187 85.7591 237.395C88.0105 240.603 87.1918 245.039 83.9852 247.224C80.0282 249.954 66.1785 261.011 53.6932 287.972C53.5568 288.245 53.2839 288.86 54.0344 289.474C54.7848 290.088 55.2624 289.747 55.5353 289.542C173.77 205.724 237.219 197.806 325.23 213.3C294.583 190.574 269.167 190.699 267.372 190.707C267.344 190.707 267.323 190.708 267.306 190.708H267.238H266.556H266.488C266.385 190.708 266.3 190.69 266.215 190.673C266.13 190.656 266.044 190.639 265.942 190.639C265.874 190.571 265.805 190.571 265.737 190.571C265.601 190.571 265.464 190.571 265.328 190.503C265.248 190.503 265.191 190.479 265.145 190.46C265.111 190.446 265.083 190.434 265.055 190.434C265.017 190.396 264.957 190.379 264.888 190.36C264.833 190.345 264.774 190.328 264.714 190.298C264.634 190.298 264.577 190.275 264.531 190.255C264.497 190.241 264.469 190.23 264.441 190.23C264.341 190.23 264.278 190.193 264.197 190.147C264.168 190.13 264.136 190.111 264.1 190.093C264.048 190.067 264.005 190.051 263.969 190.037C263.911 190.015 263.869 189.999 263.827 189.957C263.759 189.888 263.622 189.82 263.486 189.752C263.213 189.615 262.94 189.479 262.735 189.274C262.701 189.24 262.65 189.206 262.599 189.172C262.548 189.138 262.497 189.104 262.462 189.069C262.326 189.001 262.258 188.933 262.189 188.865C262.155 188.796 262.104 188.745 262.053 188.694C262.002 188.643 261.951 188.592 261.917 188.523C261.917 188.455 261.848 188.387 261.78 188.319C261.746 188.25 261.695 188.199 261.644 188.148C261.592 188.097 261.541 188.046 261.507 187.977C261.507 187.909 261.439 187.841 261.371 187.773C261.337 187.704 261.303 187.653 261.268 187.602C261.234 187.551 261.2 187.499 261.166 187.431C261.166 187.363 261.098 187.226 261.03 187.158C260.996 187.124 260.978 187.073 260.961 187.022C260.944 186.971 260.927 186.919 260.893 186.885C260.893 186.785 260.857 186.722 260.81 186.642C260.793 186.612 260.775 186.58 260.757 186.544C260.757 186.464 260.733 186.407 260.714 186.361C260.7 186.327 260.689 186.299 260.689 186.271C260.654 186.203 260.637 186.134 260.62 186.066C260.603 185.998 260.586 185.93 260.552 185.861C260.552 185.781 260.529 185.725 260.509 185.678C260.496 185.645 260.484 185.617 260.484 185.588C260.416 185.452 260.347 185.315 260.347 185.179C260.279 185.042 260.279 184.974 260.279 184.838C260.279 184.769 260.262 184.718 260.245 184.667C260.228 184.616 260.211 184.564 260.211 184.496C260.143 184.018 260.143 183.541 260.143 183.063V182.858C260.143 182.79 260.16 182.704 260.177 182.619C260.194 182.534 260.211 182.449 260.211 182.38C260.211 182.312 260.228 182.261 260.245 182.21C260.262 182.158 260.279 182.107 260.279 182.039C260.279 181.971 260.296 181.92 260.313 181.868C260.33 181.817 260.347 181.766 260.347 181.698C260.382 181.629 260.399 181.561 260.416 181.493C260.433 181.425 260.45 181.356 260.484 181.288C260.484 181.208 260.507 181.152 260.527 181.105C260.54 181.072 260.552 181.043 260.552 181.015L260.552 181.014C260.621 180.81 260.689 180.605 260.757 180.469C260.757 180.435 260.774 180.418 260.791 180.401C260.808 180.384 260.825 180.367 260.825 180.333C260.893 180.128 261.03 179.923 261.166 179.718L261.184 179.69C262.015 178.395 276.261 156.188 294.801 150.095C305.785 146.478 315.61 133.031 320.522 125.796C308.787 117.196 290.23 108.254 264.987 110.029C263.69 110.097 262.394 109.824 261.234 109.21C255.231 106.07 244.792 101.77 234.558 103.749C236.469 106.753 239.061 110.37 241.927 113.51C243.973 115.831 244.314 119.175 242.882 121.769L242.677 122.383C241.517 126.342 238.652 135.693 225.962 148.457L225.757 148.662L225.553 148.867C225.518 148.867 225.501 148.884 225.484 148.901C225.467 148.918 225.45 148.935 225.416 148.935C203.516 167.637 158.828 192.414 108.751 200.536C108.64 200.573 108.529 200.59 108.408 200.609C108.305 200.625 108.194 200.642 108.069 200.673C105.954 201.082 103.566 201.424 101.178 201.628L101.175 201.629C98.9929 201.902 96.8106 202.175 94.6284 202.379C84.8039 203.335 74.9113 203.54 64.9504 202.925C33.2939 200.741 19.6489 186.134 13.7133 174.258C3.95706 154.6 9.14218 130.71 18.2844 116.65C20.7263 112.921 23.4708 109.374 26.1189 105.951C26.2823 105.74 26.4453 105.529 26.6078 105.319C26.7309 105.16 26.8538 105 26.9765 104.841C32.3663 97.854 37.4284 91.2915 39.2295 83.7503C45.3698 57.9496 35.8865 40.8855 29.7462 33.0361C22.1732 23.4803 12.6899 18.4293 7.16365 18.4293H7.0272H6.61785H6.27672C6.24846 18.4293 6.20849 18.4176 6.16167 18.4039C6.09546 18.3845 6.01552 18.3611 5.93559 18.3611C5.86737 18.3611 5.8162 18.344 5.76503 18.3269C5.71386 18.3099 5.66269 18.2928 5.59447 18.2928C5.52624 18.2928 5.47507 18.2757 5.4239 18.2587C5.37274 18.2416 5.32157 18.2245 5.25334 18.2245C5.11689 18.2245 5.04867 18.2245 4.91222 18.1563C4.84399 18.1222 4.79282 18.1051 4.74165 18.088C4.69048 18.071 4.63931 18.0539 4.57109 18.0198C4.50286 17.9856 4.45169 17.9686 4.40053 17.9515C4.34936 17.9345 4.29819 17.9174 4.22996 17.8833C4.19585 17.8491 4.14468 17.8321 4.09351 17.815C4.04234 17.7979 3.99118 17.7809 3.95706 17.7467C3.82061 17.7467 3.68416 17.6785 3.61594 17.6102C3.58182 17.5761 3.53065 17.542 3.47949 17.5079C3.42832 17.4737 3.37715 17.4396 3.34304 17.4055C3.30892 17.3713 3.25775 17.3372 3.20658 17.3031C3.15542 17.269 3.10425 17.2348 3.07013 17.2007C3.03602 17.1666 2.98485 17.1324 2.93368 17.0983C2.88252 17.0642 2.83135 17.0301 2.79723 16.9959C2.76312 16.9618 2.71195 16.9277 2.66078 16.8936C2.60961 16.8594 2.55845 16.8253 2.52433 16.7912C2.38788 16.7229 2.31966 16.6547 2.25143 16.5864L2.04676 16.3816C1.95162 16.334 1.88965 16.2533 1.83772 16.1856C1.81517 16.1562 1.79451 16.1293 1.77386 16.1086L1.56918 15.9038C1.53507 15.8697 1.50096 15.8185 1.46684 15.7673C1.43273 15.7161 1.39862 15.6649 1.3645 15.6308C1.29628 15.4943 1.22805 15.426 1.15983 15.3578C1.12572 15.2895 1.0916 15.2383 1.05749 15.1871C1.02338 15.136 0.989265 15.0848 0.955153 15.0165C0.92104 14.9824 0.903984 14.9312 0.886928 14.88C0.869872 14.8288 0.852815 14.7776 0.818703 14.7435C0.818703 14.6435 0.782141 14.5802 0.735782 14.4999C0.718814 14.4705 0.700533 14.4388 0.682252 14.4022C0.64814 14.3681 0.631083 14.3169 0.614027 14.2657C0.596971 14.2145 0.579914 14.1633 0.545802 14.1292C0.511689 14.0609 0.494633 14.0097 0.477577 13.9585C0.46052 13.9073 0.443464 13.8562 0.409351 13.7879C0.39107 13.7513 0.372789 13.7196 0.355821 13.6902C0.309463 13.6099 0.272901 13.5466 0.272901 13.4466C0.272901 13.3784 0.255844 13.3272 0.238788 13.276C0.221732 13.2248 0.204676 13.1736 0.204676 13.1053C0.204676 13.0371 0.187619 12.9859 0.170563 12.9347C0.153507 12.8835 0.13645 12.8323 0.13645 12.7641C0.0682252 12.6275 0.0682252 12.5593 0.0682252 12.4228C0 12.2863 0 12.218 0 12.0815V11.945V11.672V11.4672V11.3307V10.9211V10.6481C0 10.5354 0.0206765 10.4434 0.0392642 10.3606C0.0544409 10.2931 0.0682252 10.2317 0.0682252 10.1703C0.13645 10.1021 0.13645 10.0338 0.13645 9.96556C0.170563 9.89731 0.187619 9.81199 0.204676 9.72667C0.221732 9.64135 0.238788 9.55603 0.272901 9.48777C0.341126 9.48777 0.341126 9.41951 0.341126 9.35126C0.375239 9.24887 0.409352 9.16355 0.443465 9.07823C0.477577 8.99291 0.511689 8.90759 0.545802 8.80521C0.614027 8.80521 0.614027 8.73695 0.614027 8.73695C0.64814 8.63457 0.699309 8.54925 0.750478 8.46393C0.801647 8.37861 0.852815 8.29329 0.886928 8.19091C1.50095 6.9623 2.45611 6.00671 3.68416 5.32415C3.7865 5.29003 3.87178 5.23883 3.95706 5.18764C4.04234 5.13645 4.12763 5.08526 4.22996 5.05113C4.22996 4.98287 4.29819 4.98287 4.29819 4.98287C4.36641 4.94875 4.4517 4.91462 4.53698 4.88049C4.62226 4.84636 4.70754 4.81223 4.77576 4.77811C4.80988 4.77811 4.84399 4.76104 4.8781 4.74398C4.91222 4.72691 4.94633 4.70985 4.98044 4.70985C5.11689 4.64159 5.25334 4.57334 5.38979 4.57334C5.4239 4.57334 5.47507 4.55627 5.52624 4.53921C5.57741 4.52214 5.62858 4.50508 5.66269 4.50508C5.69095 4.50508 5.73092 4.49337 5.77774 4.47965C5.84396 4.46025 5.92389 4.43682 6.00382 4.43682C6.14027 4.36857 6.20849 4.36857 6.34494 4.36857H6.4814C12.417 3.95903 18.6255 3.13996 24.6293 2.32089C41.8903 0.000183378 59.7653 -2.38878 77.0263 4.84636C102.611 15.6308 120.963 37.8823 123.965 61.5671C124.989 70.5087 124.102 80.0645 121.236 90.0299C117.347 103.408 110.388 115.831 101.042 126.069C98.2443 129.141 95.2424 132.007 92.3769 134.738C86.9189 139.857 81.8703 144.703 78.3908 150.505C72.8645 159.719 72.4552 171.255 77.3674 179.172C80.6422 184.564 86.032 189.206 101.86 187.226C103.02 187.09 104.112 186.953 105.272 186.749C105.34 186.749 105.408 186.732 105.476 186.715C105.544 186.697 105.613 186.68 105.681 186.68H105.817C153.166 179.241 195.533 155.897 216.274 138.219C224.87 129.55 227.599 123.475 228.827 119.858C222.417 112.026 218.275 103.728 217.988 103.151L217.98 103.135C216.274 99.7222 217.57 95.4904 220.981 93.7157C237.833 84.7742 255.708 90.7124 265.942 95.7634ZM30.3943 124.586C23.3566 135.595 19.8036 154.058 26.773 168.076C32.9908 180.589 46.383 187.564 66.4713 188.932C66.6421 188.932 66.8129 188.949 66.9837 188.966C67.1545 188.983 67.3254 189 67.4962 189L67.4961 189C67.0178 188.316 66.5396 187.632 66.0613 186.88C58.3403 174.298 58.6819 157.272 66.9496 143.322C71.314 135.93 77.2622 130.255 83.0431 124.74L83.3482 124.449C86.2179 121.782 88.8827 119.252 91.3425 116.517C99.2685 107.901 105.145 97.3705 108.424 86.0877C110.747 77.9505 111.499 70.2919 110.679 63.2487C108.424 44.4442 93.324 26.5969 72.3474 17.7759C60.1168 12.6474 46.8613 13.6731 32.7858 15.4509C35.7239 18.0494 38.5936 20.9897 41.1218 24.272C48.8428 34.1871 60.8001 55.5218 53.2841 87.1818C50.7559 97.9175 44.2648 106.26 37.9787 114.26L37.827 114.453C35.0835 117.935 32.5413 121.161 30.3943 124.586Z" fill="#333333"/>
</svg>
