<?xml version="1.0" encoding="UTF-8" standalone="no"?>
<svg
   xmlns:dc="http://purl.org/dc/elements/1.1/"
   xmlns:cc="http://creativecommons.org/ns#"
   xmlns:rdf="http://www.w3.org/1999/02/22-rdf-syntax-ns#"
   xmlns:svg="http://www.w3.org/2000/svg"
   xmlns="http://www.w3.org/2000/svg"
   xmlns:sodipodi="http://sodipodi.sourceforge.net/DTD/sodipodi-0.dtd"
   xmlns:inkscape="http://www.inkscape.org/namespaces/inkscape"
   width="512"
   height="512"
   viewBox="0 0 512 512"
   fill="none"
   version="1.1"
   id="svg14"
   sodipodi:docname="icon-dark.svg"
   inkscape:version="0.92.5 (2060ec1f9f, 2020-04-08)">
  <metadata
     id="metadata20">
    <rdf:RDF>
      <cc:Work
         rdf:about="">
        <dc:format>image/svg+xml</dc:format>
        <dc:type
           rdf:resource="http://purl.org/dc/dcmitype/StillImage" />
        <dc:title></dc:title>
      </cc:Work>
    </rdf:RDF>
  </metadata>
  <defs
     id="defs18" />
  <sodipodi:namedview
     pagecolor="#ffffff"
     bordercolor="#666666"
     borderopacity="1"
     objecttolerance="10"
     gridtolerance="10"
     guidetolerance="10"
     inkscape:pageopacity="0"
     inkscape:pageshadow="2"
     inkscape:window-width="1080"
     inkscape:window-height="1883"
     id="namedview16"
     showgrid="false"
     inkscape:zoom="0.4609375"
     inkscape:cx="256"
     inkscape:cy="256"
     inkscape:window-x="0"
     inkscape:window-y="0"
     inkscape:window-maximized="1"
     inkscape:current-layer="svg14" />
  <path
     fill-rule="evenodd"
     clip-rule="evenodd"
     d="M325.664 358.728L416.523 315.659L374.111 223.133L395.578 213.522L448 327.205L336.446 380.035L325.664 358.728Z"
     fill="#4FA9DF"
     id="path4"
     style="fill:#aaaaaa;fill-opacity:1" />
  <path
     fill-rule="evenodd"
     clip-rule="evenodd"
     d="M186.336 153.268L95.474 196.343L137.902 288.862L116.427 298.478L64 184.782L175.541 131.965L186.336 153.268Z"
     fill="#94C11F"
     id="path6"
     style="fill:#aaaaaa;fill-opacity:1" />
  <path
     fill-rule="evenodd"
     clip-rule="evenodd"
     d="M153.265 325.664L196.344 416.535L288.845 374.103L298.478 395.568L184.784 448L131.965 336.45L153.265 325.664Z"
     fill="#E30613"
     id="path8"
     style="fill:#aaaaaa;fill-opacity:1" />
  <path
     fill-rule="evenodd"
     clip-rule="evenodd"
     d="M355.337 186.336L312.253 95.4764L219.752 137.889L210.124 116.431L323.812 64L376.637 175.554L355.337 186.336Z"
     fill="#662383"
     id="path10"
     style="fill:#aaaaaa;fill-opacity:1" />
  <path
     d="M189.519 202.865L245.523 294.89C303.564 206.824 368.732 129.639 427.795 85.1147C441.032 73.2399 461.397 80.1676 447.141 93.0307C380.951 159.325 330.043 234.531 278.108 352.281C257.742 366.134 234.322 373.062 223.12 360.197L149.803 232.549C139.621 216.718 175.259 180.107 189.515 202.865L189.519 202.865Z"
     fill="#0E847B"
     id="path12" />
</svg>
